<?xml version="1.0" encoding="UTF-8"?>
<svg xmlns="http://www.w3.org/2000/svg" xmlns:xlink="http://www.w3.org/1999/xlink" width="504" height="144" viewBox="0 0 504 144">
<rect x="-50.4" y="-14.4" width="604.8" height="172.8" fill="rgb(100%, 100%, 100%)" fill-opacity="1"/>
<path fill-rule="nonzero" fill="rgb(0%, 6.27451%, 33.333333%)" fill-opacity="1" stroke-width="1.5" stroke-linecap="round" stroke-linejoin="round" stroke="rgb(49.803922%, 49.803922%, 49.803922%)" stroke-opacity="1" stroke-miterlimit="10" d="M 78.945312 89.5 L 113.945312 89.5 L 113.945312 54.5 L 78.945312 54.5 Z M 78.945312 89.5 "/>
<path fill-rule="nonzero" fill="rgb(0%, 19.215686%, 48.235294%)" fill-opacity="1" stroke-width="1.5" stroke-linecap="round" stroke-linejoin="round" stroke="rgb(49.803922%, 49.803922%, 49.803922%)" stroke-opacity="1" stroke-miterlimit="10" d="M 117.832031 89.5 L 152.832031 89.5 L 152.832031 54.5 L 117.832031 54.5 Z M 117.832031 89.5 "/>
<path fill-rule="nonzero" fill="rgb(21.176471%, 32.156863%, 54.509804%)" fill-opacity="1" stroke-width="1.5" stroke-linecap="round" stroke-linejoin="round" stroke="rgb(49.803922%, 49.803922%, 49.803922%)" stroke-opacity="1" stroke-miterlimit="10" d="M 156.722656 89.5 L 191.722656 89.5 L 191.722656 54.5 L 156.722656 54.5 Z M 156.722656 89.5 "/>
<path fill-rule="nonzero" fill="rgb(43.137255%, 43.921569%, 55.294118%)" fill-opacity="1" stroke-width="1.5" stroke-linecap="round" stroke-linejoin="round" stroke="rgb(49.803922%, 49.803922%, 49.803922%)" stroke-opacity="1" stroke-miterlimit="10" d="M 195.609375 89.5 L 230.609375 89.5 L 230.609375 54.5 L 195.609375 54.5 Z M 195.609375 89.5 "/>
<path fill-rule="nonzero" fill="rgb(60.392157%, 54.901961%, 54.509804%)" fill-opacity="1" stroke-width="1.5" stroke-linecap="round" stroke-linejoin="round" stroke="rgb(49.803922%, 49.803922%, 49.803922%)" stroke-opacity="1" stroke-miterlimit="10" d="M 234.5 89.5 L 269.5 89.5 L 269.5 54.5 L 234.5 54.5 Z M 234.5 89.5 "/>
<path fill-rule="nonzero" fill="rgb(74.901961%, 65.882353%, 49.411765%)" fill-opacity="1" stroke-width="1.5" stroke-linecap="round" stroke-linejoin="round" stroke="rgb(49.803922%, 49.803922%, 49.803922%)" stroke-opacity="1" stroke-miterlimit="10" d="M 273.390625 89.5 L 308.390625 89.5 L 308.390625 54.5 L 273.390625 54.5 Z M 273.390625 89.5 "/>
<path fill-rule="nonzero" fill="rgb(87.843137%, 76.078431%, 36.862745%)" fill-opacity="1" stroke-width="1.5" stroke-linecap="round" stroke-linejoin="round" stroke="rgb(49.803922%, 49.803922%, 49.803922%)" stroke-opacity="1" stroke-miterlimit="10" d="M 312.277344 89.5 L 347.277344 89.5 L 347.277344 54.5 L 312.277344 54.5 Z M 312.277344 89.5 "/>
<path fill-rule="nonzero" fill="rgb(98.431373%, 84.313725%, 16.862745%)" fill-opacity="1" stroke-width="1.5" stroke-linecap="round" stroke-linejoin="round" stroke="rgb(49.803922%, 49.803922%, 49.803922%)" stroke-opacity="1" stroke-miterlimit="10" d="M 351.167969 89.5 L 386.167969 89.5 L 386.167969 54.5 L 351.167969 54.5 Z M 351.167969 89.5 "/>
<path fill-rule="nonzero" fill="rgb(100%, 90.196078%, 13.333333%)" fill-opacity="1" stroke-width="1.5" stroke-linecap="round" stroke-linejoin="round" stroke="rgb(49.803922%, 49.803922%, 49.803922%)" stroke-opacity="1" stroke-miterlimit="10" d="M 390.054688 89.5 L 425.054688 89.5 L 425.054688 54.5 L 390.054688 54.5 Z M 390.054688 89.5 "/>
</svg>
