<?xml version="1.0" encoding="UTF-8"?>
<svg xmlns="http://www.w3.org/2000/svg" xmlns:xlink="http://www.w3.org/1999/xlink" width="504pt" height="144pt" viewBox="0 0 504 144" version="1.1">
<g id="surface16">
<rect x="0" y="0" width="504" height="144" style="fill:rgb(100%,100%,100%);fill-opacity:1;stroke:none;"/>
<path style="fill-rule:nonzero;fill:rgb(39.215686%,58.431373%,92.941176%);fill-opacity:1;stroke-width:1.5;stroke-linecap:round;stroke-linejoin:round;stroke:rgb(49.803922%,49.803922%,49.803922%);stroke-opacity:1;stroke-miterlimit:10;" d="M 88.109375 97 L 138.109375 97 L 138.109375 47 L 88.109375 47 Z M 88.109375 97 "/>
<path style="fill-rule:nonzero;fill:rgb(92.941176%,92.941176%,92.941176%);fill-opacity:1;stroke-width:1.5;stroke-linecap:round;stroke-linejoin:round;stroke:rgb(49.803922%,49.803922%,49.803922%);stroke-opacity:1;stroke-miterlimit:10;" d="M 143.667969 97 L 193.667969 97 L 193.667969 47 L 143.667969 47 Z M 143.667969 97 "/>
<path style="fill-rule:nonzero;fill:rgb(69.803922%,78.039216%,92.941176%);fill-opacity:1;stroke-width:1.5;stroke-linecap:round;stroke-linejoin:round;stroke:rgb(49.803922%,49.803922%,49.803922%);stroke-opacity:1;stroke-miterlimit:10;" d="M 199.222656 97 L 249.222656 97 L 249.222656 47 L 199.222656 47 Z M 199.222656 97 "/>
<path style="fill-rule:nonzero;fill:rgb(46.666667%,63.137255%,92.941176%);fill-opacity:1;stroke-width:1.5;stroke-linecap:round;stroke-linejoin:round;stroke:rgb(49.803922%,49.803922%,49.803922%);stroke-opacity:1;stroke-miterlimit:10;" d="M 254.777344 97 L 304.777344 97 L 304.777344 47 L 254.777344 47 Z M 254.777344 97 "/>
<path style="fill-rule:nonzero;fill:rgb(23.137255%,48.235294%,92.941176%);fill-opacity:1;stroke-width:1.5;stroke-linecap:round;stroke-linejoin:round;stroke:rgb(49.803922%,49.803922%,49.803922%);stroke-opacity:1;stroke-miterlimit:10;" d="M 310.332031 97 L 360.332031 97 L 360.332031 47 L 310.332031 47 Z M 310.332031 97 "/>
<path style="fill-rule:nonzero;fill:rgb(0%,33.333333%,92.941176%);fill-opacity:1;stroke-width:1.5;stroke-linecap:round;stroke-linejoin:round;stroke:rgb(49.803922%,49.803922%,49.803922%);stroke-opacity:1;stroke-miterlimit:10;" d="M 365.890625 97 L 415.890625 97 L 415.890625 47 L 365.890625 47 Z M 365.890625 97 "/>
</g>
</svg>
