<?xml version="1.0" encoding="UTF-8"?>
<svg xmlns="http://www.w3.org/2000/svg" xmlns:xlink="http://www.w3.org/1999/xlink" width="504pt" height="144pt" viewBox="0 0 504 144" version="1.1">
<g id="surface11">
<rect x="0" y="0" width="504" height="144" style="fill:rgb(100%,100%,100%);fill-opacity:1;stroke:none;"/>
<path style="fill-rule:nonzero;fill:rgb(60%,60%,60%);fill-opacity:1;stroke-width:1.5;stroke-linecap:round;stroke-linejoin:round;stroke:rgb(49.803922%,49.803922%,49.803922%);stroke-opacity:1;stroke-miterlimit:10;" d="M 93.203125 68.757812 L 151.535156 68.757812 L 151.535156 10.425781 L 93.203125 10.425781 Z M 93.203125 68.757812 "/>
<path style="fill-rule:nonzero;fill:rgb(60%,45.098039%,45.098039%);fill-opacity:1;stroke-width:1.5;stroke-linecap:round;stroke-linejoin:round;stroke:rgb(49.803922%,49.803922%,49.803922%);stroke-opacity:1;stroke-miterlimit:10;" d="M 158.019531 68.757812 L 216.351562 68.757812 L 216.351562 10.425781 L 158.019531 10.425781 Z M 158.019531 68.757812 "/>
<path style="fill-rule:nonzero;fill:rgb(60%,30.196078%,30.196078%);fill-opacity:1;stroke-width:1.5;stroke-linecap:round;stroke-linejoin:round;stroke:rgb(49.803922%,49.803922%,49.803922%);stroke-opacity:1;stroke-miterlimit:10;" d="M 222.832031 68.757812 L 281.164062 68.757812 L 281.164062 10.425781 L 222.832031 10.425781 Z M 222.832031 68.757812 "/>
<path style="fill-rule:nonzero;fill:rgb(60%,14.901961%,14.901961%);fill-opacity:1;stroke-width:1.5;stroke-linecap:round;stroke-linejoin:round;stroke:rgb(49.803922%,49.803922%,49.803922%);stroke-opacity:1;stroke-miterlimit:10;" d="M 287.648438 68.757812 L 345.980469 68.757812 L 345.980469 10.425781 L 287.648438 10.425781 Z M 287.648438 68.757812 "/>
<path style="fill-rule:nonzero;fill:rgb(60%,0%,0%);fill-opacity:1;stroke-width:1.5;stroke-linecap:round;stroke-linejoin:round;stroke:rgb(49.803922%,49.803922%,49.803922%);stroke-opacity:1;stroke-miterlimit:10;" d="M 352.464844 68.757812 L 410.796875 68.757812 L 410.796875 10.425781 L 352.464844 10.425781 Z M 352.464844 68.757812 "/>
<path style="fill-rule:nonzero;fill:rgb(60%,60%,60%);fill-opacity:1;stroke-width:1.5;stroke-linecap:round;stroke-linejoin:round;stroke:rgb(49.803922%,49.803922%,49.803922%);stroke-opacity:1;stroke-miterlimit:10;" d="M 93.203125 133.574219 L 151.535156 133.574219 L 151.535156 75.242188 L 93.203125 75.242188 Z M 93.203125 133.574219 "/>
<path style="fill-rule:nonzero;fill:rgb(45.098039%,45.098039%,60%);fill-opacity:1;stroke-width:1.5;stroke-linecap:round;stroke-linejoin:round;stroke:rgb(49.803922%,49.803922%,49.803922%);stroke-opacity:1;stroke-miterlimit:10;" d="M 158.019531 133.574219 L 216.351562 133.574219 L 216.351562 75.242188 L 158.019531 75.242188 Z M 158.019531 133.574219 "/>
<path style="fill-rule:nonzero;fill:rgb(30.196078%,30.196078%,60%);fill-opacity:1;stroke-width:1.5;stroke-linecap:round;stroke-linejoin:round;stroke:rgb(49.803922%,49.803922%,49.803922%);stroke-opacity:1;stroke-miterlimit:10;" d="M 222.832031 133.574219 L 281.164062 133.574219 L 281.164062 75.242188 L 222.832031 75.242188 Z M 222.832031 133.574219 "/>
<path style="fill-rule:nonzero;fill:rgb(14.901961%,14.901961%,60%);fill-opacity:1;stroke-width:1.5;stroke-linecap:round;stroke-linejoin:round;stroke:rgb(49.803922%,49.803922%,49.803922%);stroke-opacity:1;stroke-miterlimit:10;" d="M 287.648438 133.574219 L 345.980469 133.574219 L 345.980469 75.242188 L 287.648438 75.242188 Z M 287.648438 133.574219 "/>
<path style="fill-rule:nonzero;fill:rgb(0%,0%,60%);fill-opacity:1;stroke-width:1.5;stroke-linecap:round;stroke-linejoin:round;stroke:rgb(49.803922%,49.803922%,49.803922%);stroke-opacity:1;stroke-miterlimit:10;" d="M 352.464844 133.574219 L 410.796875 133.574219 L 410.796875 75.242188 L 352.464844 75.242188 Z M 352.464844 133.574219 "/>
</g>
</svg>
